<svg width="80" height="80" viewBox="0 0 80 80" fill="none" xmlns="http://www.w3.org/2000/svg">
<g clip-path="url(#clip0_1_214)">
<path d="M45.8885 28.1284C52.6903 28.1284 58.1694 33.8595 57.6656 40.7243C57.2248 47.0222 51.7456 51.7456 45.4477 51.7456H28.4433C25.3573 51.7456 22.5862 49.4784 22.2714 46.4554C21.9565 42.9285 24.7275 39.9685 28.1914 39.9685C28.3803 39.9685 28.5063 39.9685 28.6952 39.9685L30.9625 40.1575C32.285 40.2834 33.5446 39.4647 33.9855 38.2051L34.7412 36.0638C36.4417 31.3404 40.9132 28.1284 45.8885 28.1284ZM45.8885 22.2714C38.1421 22.2714 31.5923 27.2467 29.1991 34.1115C28.8842 34.1115 28.5063 34.0485 28.1914 34.0485C21.6416 34.0485 16.3513 39.3387 16.3513 45.8886C16.3513 52.4384 21.6416 57.7286 28.1914 57.7286H45.8885C55.7133 57.6656 63.6486 49.7303 63.6486 39.9685C63.6486 30.2068 55.7133 22.2714 45.8885 22.2714Z" fill="#B1FF2E"/>
</g>
<defs>
<clipPath id="clip0_1_214">
<rect width="47.2973" height="35.4572" fill="white" transform="translate(16.3513 22.2714)"/>
</clipPath>
</defs>
</svg>
